<svg width="84" height="90" viewBox="0 0 84 90" fill="none" xmlns="http://www.w3.org/2000/svg">
<path d="M42.0055 0C29.2378 0 18.8008 10.437 18.8008 23.2047C18.8008 35.9724 29.2378 46.4094 42.0055 46.4094C54.7732 46.4094 65.2102 35.9724 65.2102 23.2047C65.2102 10.437 54.7732 0 42.0055 0Z" fill="white"/>
<path d="M81.8289 64.9528C81.2209 63.4328 80.4103 62.0142 79.4984 60.6969C74.8371 53.8063 67.6428 49.2465 59.5364 48.1319C58.5232 48.0306 57.4085 48.2331 56.5978 48.8412C52.3419 51.9824 47.2755 53.6037 42.0062 53.6037C36.7369 53.6037 31.6704 51.9824 27.4145 48.8412C26.6038 48.2331 25.4892 47.9292 24.476 48.1319C16.3695 49.2465 9.0738 53.8063 4.51397 60.6969C3.60201 62.0142 2.79128 63.5342 2.18344 64.9528C1.87951 65.5609 0.195488 68.892 0.499412 69.5C1.31013 70.9186 1.37271 70.595 2.28468 71.8109C3.70325 73.7363 6.77722 75.8787 8.4999 77.5C9.91847 78.9186 12.4999 80.5 13.9999 81.5C22.0049 87.4786 31.9746 89.3734 41.9049 89.3734C51.8353 89.3734 61.9949 87.4784 69.9999 81.5C71.6211 80.2841 73.5811 79.4186 74.9999 78C76.6211 76.3787 79.0811 74.9252 80.4999 73C81.5131 71.6827 82.689 70.9186 83.4995 69.5C84.0059 68.892 82.1328 65.5607 81.8289 64.9528Z" fill="white"/>
</svg>
